<?xml version="1.0" standalone="no"?>
<!DOCTYPE svg PUBLIC "-//W3C//DTD SVG 20010904//EN"
 "http://www.w3.org/TR/2001/REC-SVG-20010904/DTD/svg10.dtd">
<svg version="1.0" xmlns="http://www.w3.org/2000/svg"
 width="808.000000pt" height="309.000000pt" viewBox="0 0 808.000000 309.000000"
 preserveAspectRatio="xMidYMid meet">

<g transform="translate(0.000000,309.000000) scale(0.100000,-0.100000)"
fill="#000000" stroke="none">
<path d="M1212 2545 c-129 -28 -278 -122 -355 -225 -41 -54 -74 -117 -97 -185
l-17 -50 -129 -5 c-117 -5 -135 -8 -194 -36 -157 -74 -252 -247 -222 -405 25
-133 98 -231 218 -290 62 -31 73 -33 212 -38 l146 -6 84 -250 c46 -137 88
-255 94 -262 8 -10 117 -13 494 -13 l484 0 14 22 c8 13 56 129 106 258 49 129
98 241 107 248 9 6 29 12 44 12 46 0 164 67 210 118 49 56 68 90 85 157 36
135 -4 283 -103 376 -84 79 -171 109 -319 109 -109 0 -117 3 -129 55 -12 49
-80 166 -131 223 -141 160 -381 235 -602 187z m333 -114 c165 -67 289 -207
326 -368 16 -73 15 -73 163 -73 177 0 221 -13 296 -88 114 -115 122 -279 19
-396 -38 -43 -133 -101 -150 -90 -5 3 -2 22 7 42 9 20 21 52 27 70 21 66 58
63 -720 62 -397 0 -711 4 -725 9 -19 7 -29 25 -48 87 -26 88 -47 135 -64 146
-17 12 -265 9 -287 -2 -23 -13 -25 -53 -3 -70 9 -8 59 -16 130 -19 l115 -6 53
-160 c30 -88 52 -163 49 -167 -7 -13 -164 -9 -225 6 -113 26 -195 115 -218
237 -18 92 22 203 94 265 68 58 127 74 280 74 95 0 137 4 144 13 5 6 22 47 36
90 33 100 77 168 151 235 151 138 363 178 550 103z m570 -931 c3 -5 -18 -69
-46 -142 -29 -73 -82 -212 -119 -308 l-68 -175 -435 -3 -435 -2 -102 305 c-56
168 -99 312 -96 320 5 13 93 15 650 15 398 0 647 -4 651 -10z"/>
<path d="M2983 1563 c4 -290 8 -313 69 -379 106 -115 289 -110 396 11 51 58
66 108 59 197 -9 138 -119 238 -261 238 -57 0 -139 -33 -170 -69 -11 -11 -23
-21 -28 -21 -4 0 -8 63 -8 140 l0 140 -31 0 -30 0 4 -257z m324 2 c83 -25 143
-109 143 -201 0 -198 -261 -280 -374 -116 -40 57 -48 149 -18 208 28 54 72 93
123 109 57 18 66 18 126 0z"/>
<path d="M4460 1570 c0 -231 2 -254 22 -307 26 -71 70 -115 143 -142 144 -54
294 10 345 146 25 68 25 128 0 196 -61 162 -271 220 -399 110 -22 -18 -42 -33
-45 -33 -3 0 -6 63 -6 140 l0 140 -30 0 -30 0 0 -250z m357 -17 c70 -33 121
-136 108 -218 -14 -98 -90 -167 -190 -173 -127 -8 -215 78 -215 211 0 155 153
249 297 180z"/>
<path d="M3884 1615 c-46 -18 -115 -80 -141 -128 -13 -24 -18 -56 -18 -124 0
-90 0 -92 40 -149 55 -79 113 -109 210 -108 77 1 131 22 175 69 l25 27 5 -54
c5 -51 6 -53 35 -53 l30 0 0 160 c-1 174 -8 208 -55 274 -45 62 -108 93 -194
97 -46 2 -85 -2 -112 -11z m186 -65 c63 -32 92 -79 98 -158 5 -81 -14 -128
-77 -185 -92 -83 -228 -54 -289 64 -33 64 -28 152 14 211 56 81 169 112 254
68z"/>
<path d="M5345 1606 c-158 -73 -198 -285 -80 -424 38 -45 97 -73 167 -79 78
-8 139 11 195 60 124 110 125 293 0 403 -78 69 -188 84 -282 40z m204 -59
c119 -62 146 -226 55 -327 -43 -48 -88 -64 -164 -58 -128 9 -203 120 -176 261
8 41 63 108 108 130 48 24 126 22 177 -6z"/>
<path d="M6062 1604 c-200 -99 -191 -407 14 -484 134 -50 278 2 340 122 25 49
30 155 9 217 -47 142 -225 214 -363 145z m208 -56 c118 -60 147 -223 57 -325
-39 -45 -82 -63 -146 -63 -63 0 -98 13 -139 53 -43 41 -62 87 -62 151 1 158
152 254 290 184z"/>
<path d="M6782 1605 c-186 -94 -193 -373 -12 -475 38 -21 58 -25 130 -25 63 0
94 5 120 19 45 23 88 64 106 98 13 25 12 28 -7 39 -19 10 -26 6 -58 -28 -49
-54 -95 -76 -161 -77 -99 -1 -181 67 -196 162 l-7 42 233 0 232 0 -7 47 c-20
132 -113 215 -250 221 -60 3 -78 -1 -123 -23z m200 -45 c15 0 79 -64 94 -91
30 -60 32 -59 -176 -59 -215 0 -214 -1 -164 77 43 66 119 97 199 82 22 -5 43
-8 47 -9z"/>
<path d="M7414 1611 c-40 -24 -68 -83 -60 -124 11 -56 41 -93 111 -132 88 -49
105 -67 105 -110 0 -52 -36 -85 -92 -85 -40 0 -82 18 -101 44 -4 7 -14 2 -27
-14 l-20 -25 28 -22 c38 -32 87 -46 139 -40 83 9 138 75 130 154 -6 59 -27 86
-99 128 -35 20 -75 48 -90 63 -46 42 -34 101 24 121 28 10 39 8 83 -13 49 -25
50 -25 69 -6 19 18 18 19 -29 49 -58 37 -123 41 -171 12z"/>
<path d="M1086 651 c-43 -28 -66 -70 -66 -119 0 -58 25 -98 78 -123 149 -72
273 125 144 230 -44 37 -110 42 -156 12z m117 -92 c28 -44 -25 -95 -72 -69
-24 12 -29 58 -9 78 17 17 68 11 81 -9z"/>
<path d="M1713 649 c-69 -44 -83 -152 -27 -210 54 -56 135 -62 194 -13 65 55
62 154 -5 213 -29 25 -44 31 -83 31 -30 0 -58 -8 -79 -21z m117 -90 c27 -49
-20 -96 -69 -69 -24 12 -29 58 -9 78 20 20 66 15 78 -9z"/>
</g>
</svg>
